<svg xmlns="http://www.w3.org/2000/svg" version="1.1" viewBox="0 0 4630 4630">
  <path d="M4560 4040h-410v-180c140-40 240-180 240-340 0-200-140-360-310-360s-320 160-320 360c0 160 100 300 240 340v180h-330v-770c150-100 240-260 240-440 0-140-70-510-170-840-140-450-290-670-460-670-140 0-250 130-370 380-210-600-510-1180-530-1220a80 80 0 00-130 0s-160 310-330 700a5220 5220 0 00-400 1180c-130 0-250 140-350 430-20-150-60-340-110-520-60-240-170-550-350-550s-290 310-350 550c-70 250-120 550-120 670 0 220 170 410 400 440v660H80a70 70 0 10 0 150h4480a70 70 0 10 0-150zm-650-520c0-120 70-210 170-210s160 90 160 210-70 200-160 200-170-90-170-200zm-390 520h-170v-650l170-40v690zm-2250-390c50 30 110 50 170 50v340h-170v-390zm320 60c100-20 180-50 250-100v430h-250v-330zm400-390c80 40 160 60 250 70v650h-250v-720zm400 70c120-10 230-50 330-110v760h-330v-650zm640-450 170 170v130c-110-20-210-60-280-130l110-170zm-160 320c90 70 210 110 330 130v650h-330v-780zm270-1670c50-80 100-120 140-120 10 0 70 10 150 150a3630 3630 0 01 330 1210c0 210-180 370-410 410v-290l220-220a70 70 0 10-110-110l-110 110v-130a70 70 0 10-150 0v290l-110-110 20-180c0-200-50-430-120-670 50-150 100-260 150-340zm-820-910c170 360 640 1360 640 1920 0 330-250 600-570 640v-530l300-300a70 70 0 10-110-110l-190 190v-290a70 70 0 10-150 0v530l-190-190a80 80 0 00-110 110l300 300v290c-100-20-190-50-280-100-20-110-50-230-90-340-60-170-120-290-190-360 70-570 470-1430 630-1760zM1310 2850c90-270 180-340 210-340s110 70 210 340c70 200 110 420 110 490 0 100-110 190-250 210v-160a70 70 0 10-150 10v150c-140-20-240-110-240-210 0-70 40-290 110-490zm-920 90c0-90 40-370 110-630 100-370 190-440 210-440s110 70 210 440c70 260 110 540 110 620 0 150-100 270-240 300v-150a70 70 0 10-150 0v150c-140-30-250-150-250-290zm400 440c100-10 200-60 260-130v80c0 80 20 150 70 210v500H790v-660"/>
</svg>
