<?xml version="1.0" standalone="no"?>
<!DOCTYPE svg PUBLIC "-//W3C//DTD SVG 20010904//EN"
 "http://www.w3.org/TR/2001/REC-SVG-20010904/DTD/svg10.dtd">
<svg version="1.0" xmlns="http://www.w3.org/2000/svg"
 width="700.000000pt" height="700.000000pt" viewBox="0 0 700.000000 700.000000"
 preserveAspectRatio="xMidYMid meet">
<metadata>
Created by potrace 1.14, written by Peter Selinger 2001-2017
</metadata>
<g transform="translate(0.000000,700.000000) scale(0.100000,-0.100000)"
fill="#000000" stroke="none">
<path d="M0 3500 l0 -3500 3500 0 3500 0 0 3500 0 3500 -3500 0 -3500 0 0
-3500z m3554 2351 c69 -60 564 -1176 676 -1523 6 -21 15 -38 18 -38 4 0 25 35
47 78 91 177 210 324 299 366 257 122 483 -130 689 -769 55 -173 126 -451 166
-650 90 -452 82 -635 -39 -820 -41 -62 -170 -195 -190 -195 -6 0 -10 -178 -10
-495 l0 -495 215 0 215 0 0 114 0 113 -63 31 c-169 83 -270 288 -237 482 26
153 139 302 267 350 70 26 177 29 241 6 91 -33 174 -110 222 -206 72 -142 66
-337 -13 -472 -35 -61 -118 -135 -182 -164 l-55 -25 0 -114 0 -114 280 -3 280
-3 26 -26 c36 -36 36 -92 0 -128 l-26 -26 -2880 0 -2880 0 -26 26 c-36 36 -36
92 0 128 l26 26 375 3 375 3 0 420 c0 327 -3 420 -12 423 -7 2 -43 12 -80 21
-199 50 -361 227 -404 439 -14 68 -15 96 -4 200 21 212 75 486 151 768 53 197
91 303 151 421 134 262 303 324 454 165 119 -123 199 -320 303 -738 50 -201
101 -458 101 -506 0 -41 15 -27 33 30 27 84 119 265 171 333 68 90 163 153
230 153 19 0 26 21 78 233 79 318 177 623 294 909 89 219 366 824 502 1098 81
162 90 176 121 186 39 13 68 8 95 -15z"/>
<path d="M3462 5543 c-11 -26 -57 -127 -102 -223 -338 -722 -583 -1413 -660
-1864 l-19 -111 24 -25 c101 -109 235 -428 300 -715 15 -66 30 -129 35 -141
10 -26 143 -85 269 -118 l91 -25 0 192 0 192 -195 195 c-183 183 -195 197
-195 232 0 49 33 87 83 95 37 6 39 4 165 -121 70 -69 131 -126 135 -126 3 0 8
160 9 356 l3 356 28 24 c38 32 90 32 122 -1 25 -24 25 -25 25 -223 0 -109 3
-202 7 -206 4 -4 67 53 140 126 127 127 135 133 174 133 55 0 89 -38 89 -97 0
-40 -5 -46 -205 -248 l-205 -206 0 -330 c0 -182 2 -333 5 -336 3 -3 35 1 71 8
191 40 376 156 490 307 134 178 187 376 165 615 -34 370 -164 820 -416 1442
-141 350 -382 881 -401 887 -6 2 -20 -18 -32 -44z"/>
<path d="M4648 4555 c-46 -31 -113 -124 -168 -234 -47 -94 -130 -301 -130
-324 0 -8 16 -72 35 -142 50 -183 92 -409 106 -565 9 -110 9 -158 -3 -257
l-14 -122 73 -73 73 -72 0 203 0 203 29 29 c38 38 91 40 126 4 23 -22 25 -31
25 -125 0 -55 3 -100 7 -100 4 0 44 36 89 80 72 71 86 80 119 80 51 0 95 -44
95 -96 0 -35 -10 -48 -155 -194 l-155 -156 0 -182 0 -182 23 0 c41 0 130 31
212 73 150 78 256 210 286 355 31 151 -64 687 -192 1079 -99 306 -206 553
-276 642 -81 102 -136 123 -205 76z"/>
<path d="M1400 4033 c-98 -117 -218 -472 -294 -868 -66 -343 -72 -517 -22
-614 37 -72 107 -140 185 -179 102 -51 101 -51 101 79 0 109 0 111 29 140 38
38 91 40 126 4 24 -23 25 -30 25 -140 0 -134 -1 -134 96 -85 115 57 193 162
213 286 10 67 1 187 -30 369 -63 376 -146 675 -239 870 -57 117 -101 175 -135
175 -15 0 -35 -14 -55 -37z"/>
<path d="M2410 3210 c-120 -123 -273 -549 -325 -904 -14 -97 -14 -114 -1 -160
22 -73 73 -129 159 -170 40 -20 89 -38 110 -42 l37 -6 0 121 c0 116 1 123 25
146 35 36 88 34 126 -4 29 -29 29 -31 29 -145 0 -64 4 -116 8 -116 19 0 120
34 155 52 53 27 115 85 138 129 33 66 20 218 -42 464 -91 361 -257 685 -350
685 -11 0 -42 -22 -69 -50z"/>
<path d="M4327 2603 l-68 -106 27 -28 c39 -40 167 -104 254 -127 l75 -20 3 86
3 86 -108 108 c-59 59 -110 108 -113 108 -3 -1 -36 -48 -73 -107z"/>
<path d="M1851 2286 c-46 -47 -157 -104 -234 -120 l-62 -13 -3 -421 -2 -422
215 0 215 0 0 315 0 315 -30 54 c-43 75 -51 106 -58 224 l-7 103 -34 -35z"/>
<path d="M4190 1805 l0 -495 215 0 215 0 0 415 0 415 -27 6 c-141 30 -348 111
-368 144 -3 5 -13 10 -21 10 -12 0 -14 -71 -14 -495z"/>
<path d="M3913 2234 c-81 -40 -144 -59 -288 -90 l-40 -9 -3 -412 -2 -413 215
0 215 0 0 485 c0 267 -1 485 -2 484 -2 0 -44 -21 -95 -45z"/>
<path d="M5655 2226 c-82 -37 -135 -131 -135 -240 0 -91 15 -138 63 -192 84
-95 187 -107 273 -32 63 55 79 99 79 213 0 88 -3 107 -25 149 -14 27 -42 63
-63 79 -31 26 -48 32 -100 34 -38 2 -74 -2 -92 -11z"/>
<path d="M3080 1769 l0 -459 160 0 160 0 0 415 0 414 -37 7 c-88 15 -166 35
-223 58 l-60 25 0 -460z"/>
<path d="M4925 2170 c-38 -10 -82 -21 -97 -24 l-28 -6 0 -415 0 -415 115 0
115 0 0 440 c0 413 -1 440 -17 439 -10 0 -49 -9 -88 -19z"/>
<path d="M2815 1820 c-38 -21 -108 -50 -155 -63 l-85 -25 -3 -211 -2 -211 160
0 160 0 0 275 c0 151 -1 275 -2 274 -2 0 -34 -18 -73 -39z"/>
<path d="M2160 1560 l0 -250 115 0 115 0 -2 217 -3 218 -55 8 c-30 4 -79 19
-108 32 -30 14 -56 25 -58 25 -2 0 -4 -112 -4 -250z"/>
</g>
</svg>
